<?xml version="1.0" encoding="iso-8859-1"?>
<!-- Uploaded to: SVG Repo, www.svgrepo.com, Generator: SVG Repo Mixer Tools -->
<svg fill="#013243" height="800px" width="800px" version="1.1" id="Layer_1" xmlns="http://www.w3.org/2000/svg" xmlns:xlink="http://www.w3.org/1999/xlink"
	 viewBox="0 0 512.001 512.001" xml:space="preserve">
<g>
	<g>
		<path d="M510.698,270.423L438.929,155.66c-2.508-4.011-7.793-5.231-11.804-2.721c-4.011,2.508-5.23,7.794-2.721,11.804
			l66.529,106.386l-59.414,26.284c-13.875-31.295-39.082-56.138-70.677-69.555V63.105l44.747,71.552
			c2.508,4.01,7.793,5.23,11.804,2.721c4.011-2.508,5.23-7.794,2.721-11.804L359.539,28.71c-0.063-0.102-0.144-0.185-0.211-0.283
			c-1.624-2.373-4.411-3.775-7.281-3.716c-2.703,0.055-5.293,1.488-6.817,3.712c-0.068,0.099-0.151,0.185-0.215,0.288
			l-82.886,132.542l-93.82-60.597c-2.436-1.573-5.504-1.808-8.151-0.621c0,0-155.008,69.466-155.094,69.505
			C2.042,170.892,0,174.043,0,177.355v52.336c0,4.731,3.835,8.566,8.566,8.566s8.566-3.835,8.566-8.566v-36.607l90.481,58.44
			v145.614l-90.481-58.441v-74.744c0-4.731-3.835-8.566-8.566-8.566S0,259.224,0,263.954v79.408c0,2.908,1.476,5.617,3.919,7.195
			l107.613,69.505c1.141,0.736,2.539,1.216,3.888,1.336c1.362,0.121,2.774-0.105,4.037-0.628c0.074-0.031,0.151-0.054,0.225-0.087
			l59.833-26.814c17.601,54.16,68.547,93.422,128.5,93.422c74.485,0,135.082-60.598,135.082-135.082
			c0-13.44-1.983-26.423-5.653-38.684l69.458-30.727c2.272-1.005,3.995-2.947,4.724-5.321
			C512.353,275.104,512.015,272.529,510.698,270.423z M343.71,63.105V221.91c-0.352-0.096-0.706-0.177-1.058-0.271
			c-11.285-3.005-22.962-4.509-34.639-4.509c-9.458,0-18.924,0.988-28.176,2.947v-42.722c0-2.469-1.149-4.936-3.029-6.535
			c-0.099-0.085-0.201-0.167-0.305-0.247L343.71,63.105z M116.919,237.141l-90.453-58.422l136.452-61.151l90.124,58.21l-0.312,0.499
			L116.919,237.141z M308.014,470.162c-26.629,0-52.795-9.191-73.584-25.831c-20.486-16.398-35.282-39.575-41.252-65.152
			c-2.059-8.824-3.115-17.906-3.115-26.967c0-21.134,5.666-41.874,16.385-59.98c2.109-3.563,1.341-8.032-1.613-10.707
			c-0.423-0.384-0.89-0.73-1.4-1.032c-4.069-2.408-9.324-1.063-11.734,3.008c-12.279,20.743-18.769,44.503-18.769,68.711
			c0,8.177,0.745,16.336,2.21,24.379c0.026,0.144,0.048,0.289,0.075,0.433l-50.472,22.619V252.409l137.962-61.828v34.332
			c-17.874,6.355-34.345,16.483-48.365,29.98c-3.408,3.281-3.511,8.704-0.23,12.111c0.616,0.64,1.307,1.163,2.045,1.569
			c3.2,1.761,7.299,1.331,10.07-1.334c13.381-12.881,29.782-22.521,47.459-27.896c24.449-7.191,50.971-6.674,74.937,2.124
			c45.091,16.587,77.341,59.971,77.341,110.746C425.964,417.251,373.052,470.162,308.014,470.162z"/>
	</g>
</g>
</svg>
