<?xml version="1.0" encoding="iso-8859-1"?>
<!-- Uploaded to: SVG Repo, www.svgrepo.com, Generator: SVG Repo Mixer Tools -->
<!DOCTYPE svg PUBLIC "-//W3C//DTD SVG 1.1//EN" "http://www.w3.org/Graphics/SVG/1.1/DTD/svg11.dtd">
<svg fill="#013243" height="800px" width="800px" version="1.1" id="Capa_1" xmlns="http://www.w3.org/2000/svg" xmlns:xlink="http://www.w3.org/1999/xlink"
	 viewBox="0 0 60 60" xml:space="preserve">
<g>
	<path d="M43,10.143c-0.553,0-1,0.447-1,1v1.071c0,0.553,0.447,1,1,1s1-0.447,1-1v-1.071C44,10.59,43.553,10.143,43,10.143z"/>
	<path d="M44,5.785c0-0.553-0.447-1-1-1s-1,0.447-1,1v1.071c0,0.553,0.447,1,1,1s1-0.447,1-1V5.785z"/>
	<path d="M42.088,1.912C42.245,2.259,42.595,2.5,43,2.5c0.553,0,1-0.447,1-1V0h-1.5c-0.553,0-1,0.447-1,1
		C41.5,1.405,41.741,1.755,42.088,1.912z"/>
	<path d="M5.705,2h1.052c0.553,0,1-0.447,1-1s-0.447-1-1-1H5.705c-0.553,0-1,0.447-1,1S5.152,2,5.705,2z"/>
	<path d="M10.962,2h1.051c0.553,0,1-0.447,1-1s-0.447-1-1-1h-1.051c-0.553,0-1,0.447-1,1S10.409,2,10.962,2z"/>
	<path d="M16.218,2h1.052c0.553,0,1-0.447,1-1s-0.447-1-1-1h-1.052c-0.553,0-1,0.447-1,1S15.665,2,16.218,2z"/>
	<path d="M21.475,2h1.051c0.553,0,1-0.447,1-1s-0.447-1-1-1h-1.051c-0.553,0-1,0.447-1,1S20.922,2,21.475,2z"/>
	<path d="M26.73,2h1.052c0.553,0,1-0.447,1-1s-0.447-1-1-1H26.73c-0.553,0-1,0.447-1,1S26.178,2,26.73,2z"/>
	<path d="M31.987,2h1.051c0.553,0,1-0.447,1-1s-0.447-1-1-1h-1.051c-0.553,0-1,0.447-1,1S31.435,2,31.987,2z"/>
	<path d="M37.243,2h1.052c0.553,0,1-0.447,1-1s-0.447-1-1-1h-1.052c-0.553,0-1,0.447-1,1S36.69,2,37.243,2z"/>
	<path d="M1.5,0H0v1.5c0,0.553,0.447,1,1,1c0.405,0,0.755-0.241,0.912-0.588C2.259,1.755,2.5,1.405,2.5,1C2.5,0.447,2.053,0,1.5,0z"
		/>
	<path d="M1,18.27c0.553,0,1-0.447,1-1v-1.052c0-0.553-0.447-1-1-1s-1,0.447-1,1v1.052C0,17.822,0.447,18.27,1,18.27z"/>
	<path d="M1,23.525c0.553,0,1-0.447,1-1v-1.051c0-0.553-0.447-1-1-1s-1,0.447-1,1v1.051C0,23.078,0.447,23.525,1,23.525z"/>
	<path d="M1,39.295c0.553,0,1-0.447,1-1v-1.052c0-0.553-0.447-1-1-1s-1,0.447-1,1v1.052C0,38.848,0.447,39.295,1,39.295z"/>
	<path d="M1,7.757c0.553,0,1-0.447,1-1V5.705c0-0.553-0.447-1-1-1s-1,0.447-1,1v1.052C0,7.31,0.447,7.757,1,7.757z"/>
	<path d="M1,28.782c0.553,0,1-0.447,1-1V26.73c0-0.553-0.447-1-1-1s-1,0.447-1,1v1.052C0,28.335,0.447,28.782,1,28.782z"/>
	<path d="M1,34.038c0.553,0,1-0.447,1-1v-1.051c0-0.553-0.447-1-1-1s-1,0.447-1,1v1.051C0,33.591,0.447,34.038,1,34.038z"/>
	<path d="M1,13.013c0.553,0,1-0.447,1-1v-1.051c0-0.553-0.447-1-1-1s-1,0.447-1,1v1.051C0,12.565,0.447,13.013,1,13.013z"/>
	<path d="M1.912,42.088C1.755,41.741,1.405,41.5,1,41.5c-0.553,0-1,0.447-1,1V44h1.5c0.553,0,1-0.447,1-1
		C2.5,42.595,2.259,42.245,1.912,42.088z"/>
	<path d="M12.215,42h-1.071c-0.553,0-1,0.447-1,1s0.447,1,1,1h1.071c0.553,0,1-0.447,1-1S12.768,42,12.215,42z"/>
	<path d="M6.857,42H5.786c-0.553,0-1,0.447-1,1s0.447,1,1,1h1.071c0.553,0,1-0.447,1-1S7.41,42,6.857,42z"/>
	<path d="M18,47.786c0-0.553-0.447-1-1-1s-1,0.447-1,1v1.071c0,0.553,0.447,1,1,1s1-0.447,1-1V47.786z"/>
	<path d="M17,52.144c-0.553,0-1,0.447-1,1v1.071c0,0.553,0.447,1,1,1s1-0.447,1-1v-1.071C18,52.591,17.553,52.144,17,52.144z"/>
	<path d="M17.912,58.088C17.755,57.741,17.405,57.5,17,57.5c-0.553,0-1,0.447-1,1V60h1.5c0.553,0,1-0.447,1-1
		C18.5,58.595,18.259,58.245,17.912,58.088z"/>
	<path d="M38.525,58h-1.051c-0.553,0-1,0.447-1,1s0.447,1,1,1h1.051c0.553,0,1-0.447,1-1S39.078,58,38.525,58z"/>
	<path d="M22.757,58h-1.052c-0.553,0-1,0.447-1,1s0.447,1,1,1h1.052c0.553,0,1-0.447,1-1S23.31,58,22.757,58z"/>
	<path d="M49.038,58h-1.051c-0.553,0-1,0.447-1,1s0.447,1,1,1h1.051c0.553,0,1-0.447,1-1S49.591,58,49.038,58z"/>
	<path d="M54.295,58h-1.052c-0.553,0-1,0.447-1,1s0.447,1,1,1h1.052c0.553,0,1-0.447,1-1S54.848,58,54.295,58z"/>
	<path d="M43.782,58H42.73c-0.553,0-1,0.447-1,1s0.447,1,1,1h1.052c0.553,0,1-0.447,1-1S44.335,58,43.782,58z"/>
	<path d="M28.013,58h-1.051c-0.553,0-1,0.447-1,1s0.447,1,1,1h1.051c0.553,0,1-0.447,1-1S28.565,58,28.013,58z"/>
	<path d="M33.27,58h-1.052c-0.553,0-1,0.447-1,1s0.447,1,1,1h1.052c0.553,0,1-0.447,1-1S33.822,58,33.27,58z"/>
	<path d="M59,57.5c-0.405,0-0.755,0.241-0.912,0.588C57.741,58.245,57.5,58.595,57.5,59c0,0.553,0.447,1,1,1H60v-1.5
		C60,57.947,59.553,57.5,59,57.5z"/>
	<path d="M59,36.475c-0.553,0-1,0.447-1,1v1.051c0,0.553,0.447,1,1,1s1-0.447,1-1v-1.051C60,36.922,59.553,36.475,59,36.475z"/>
	<path d="M59,31.218c-0.553,0-1,0.447-1,1v1.052c0,0.553,0.447,1,1,1s1-0.447,1-1v-1.052C60,31.665,59.553,31.218,59,31.218z"/>
	<path d="M59,41.73c-0.553,0-1,0.447-1,1v1.052c0,0.553,0.447,1,1,1s1-0.447,1-1V42.73C60,42.178,59.553,41.73,59,41.73z"/>
	<path d="M59,25.962c-0.553,0-1,0.447-1,1v1.051c0,0.553,0.447,1,1,1s1-0.447,1-1v-1.051C60,26.409,59.553,25.962,59,25.962z"/>
	<path d="M59,46.987c-0.553,0-1,0.447-1,1v1.051c0,0.553,0.447,1,1,1s1-0.447,1-1v-1.051C60,47.435,59.553,46.987,59,46.987z"/>
	<path d="M59,20.705c-0.553,0-1,0.447-1,1v1.052c0,0.553,0.447,1,1,1s1-0.447,1-1v-1.052C60,21.152,59.553,20.705,59,20.705z"/>
	<path d="M59,52.243c-0.553,0-1,0.447-1,1v1.052c0,0.553,0.447,1,1,1s1-0.447,1-1v-1.052C60,52.69,59.553,52.243,59,52.243z"/>
	<path d="M58.5,16c-0.553,0-1,0.447-1,1c0,0.405,0.241,0.755,0.588,0.912C58.245,18.259,58.595,18.5,59,18.5c0.553,0,1-0.447,1-1V16
		H58.5z"/>
	<path d="M53.143,18h1.071c0.553,0,1-0.447,1-1s-0.447-1-1-1h-1.071c-0.553,0-1,0.447-1,1S52.59,18,53.143,18z"/>
	<path d="M47.785,18h1.071c0.553,0,1-0.447,1-1s-0.447-1-1-1h-1.071c-0.553,0-1,0.447-1,1S47.232,18,47.785,18z"/>
	<path d="M16,44h0.144c0.174,0.296,0.488,0.5,0.856,0.5c0.366,0,0.673-0.206,0.847-0.5H44V17.847c0.294-0.174,0.5-0.48,0.5-0.847
		c0-0.368-0.204-0.682-0.5-0.856V16h-0.144c-0.174-0.296-0.488-0.5-0.856-0.5c-0.366,0-0.673,0.206-0.847,0.5H16v26.153
		c-0.294,0.174-0.5,0.481-0.5,0.847c0,0.368,0.204,0.682,0.5,0.856V44z"/>
</g>
</svg>
