<svg width="346" height="400" viewBox="0 0 346 400" fill="none" xmlns="http://www.w3.org/2000/svg">
<path d="M20 22.0499C20 9.88018 29.8802 0.0224041 42.0499 0.0499998L230.365 0.477018C236.797 0.491603 242.9 3.32018 247.069 8.21835L278.283 44.8953C279.752 46.6214 281.479 48.1101 283.403 49.3088L335.115 81.5291C341.572 85.5528 345.493 92.6277 345.48 100.236L345.035 378.035C345.016 390.172 335.172 400 323.035 400H42C29.8497 400 20 390.15 20 378V22.0499Z" fill="#013243"/>
<path d="M232.996 112.949C223.054 112.949 214.996 104.89 214.996 94.9488V18.5928C214.996 3.46619 232.522 -4.9144 244.296 4.58234L284.424 36.9488L338.848 80.9514C352.044 91.6199 344.5 112.949 327.531 112.949H232.996Z" fill="#BEE5F3"/>
<path d="M0 219C0 205.745 10.7452 195 24 195H227C240.255 195 251 205.745 251 219V275C251 288.255 240.255 299 227 299H24C10.7452 299 0 288.255 0 275V219Z" fill="#BEE5F3"/>
<path d="M69.0909 234C68.9697 232.485 68.4015 231.303 67.3864 230.455C66.3864 229.606 64.8636 229.182 62.8182 229.182C61.5152 229.182 60.447 229.341 59.6136 229.659C58.7955 229.962 58.1894 230.379 57.7955 230.909C57.4015 231.439 57.197 232.045 57.1818 232.727C57.1515 233.288 57.25 233.795 57.4773 234.25C57.7197 234.689 58.0985 235.091 58.6136 235.455C59.1288 235.803 59.7879 236.121 60.5909 236.409C61.3939 236.697 62.3485 236.955 63.4545 237.182L67.2727 238C69.8485 238.545 72.053 239.265 73.8864 240.159C75.7197 241.053 77.2197 242.106 78.3864 243.318C79.553 244.515 80.4091 245.864 80.9545 247.364C81.5151 248.864 81.803 250.5 81.8182 252.273C81.803 255.333 81.0379 257.924 79.5227 260.045C78.0076 262.167 75.8409 263.78 73.0227 264.886C70.2197 265.992 66.8485 266.545 62.9091 266.545C58.8636 266.545 55.3333 265.947 52.3182 264.75C49.3182 263.553 46.9849 261.712 45.3182 259.227C43.6667 256.727 42.8333 253.53 42.8182 249.636H54.8182C54.8939 251.061 55.25 252.258 55.8864 253.227C56.5227 254.197 57.4167 254.932 58.5682 255.432C59.7349 255.932 61.1212 256.182 62.7273 256.182C64.0758 256.182 65.2045 256.015 66.1136 255.682C67.0227 255.348 67.7121 254.886 68.1818 254.295C68.6515 253.705 68.8939 253.03 68.9091 252.273C68.8939 251.561 68.6591 250.939 68.2045 250.409C67.7652 249.864 67.0379 249.379 66.0227 248.955C65.0076 248.515 63.6364 248.106 61.9091 247.727L57.2727 246.727C53.1515 245.833 49.9015 244.341 47.5227 242.25C45.1591 240.144 43.9848 237.273 44 233.636C43.9848 230.682 44.7727 228.098 46.3636 225.886C47.9697 223.659 50.1894 221.924 53.0227 220.682C55.8712 219.439 59.1364 218.818 62.8182 218.818C66.5758 218.818 69.8258 219.447 72.5682 220.705C75.3106 221.962 77.4242 223.735 78.9091 226.023C80.4091 228.295 81.1667 230.955 81.1818 234H69.0909Z" fill="#013243"/>
<path d="M85.3523 229.636V219.455H125.807V229.636H111.807V266H99.3523V229.636H85.3523Z" fill="#013243"/>
<path d="M130.562 266V219.455H164.108V229.636H143.199V237.636H162.381V247.818H143.199V255.818H164.017V266H130.562Z" fill="#013243"/>
<path d="M170.375 266V219.455H190.466C193.92 219.455 196.943 220.136 199.534 221.5C202.125 222.864 204.14 224.78 205.58 227.25C207.019 229.72 207.739 232.606 207.739 235.909C207.739 239.242 206.996 242.129 205.511 244.568C204.042 247.008 201.973 248.886 199.307 250.205C196.655 251.523 193.557 252.182 190.011 252.182H178.011V242.364H187.466C188.951 242.364 190.216 242.106 191.261 241.591C192.322 241.061 193.133 240.311 193.693 239.341C194.269 238.371 194.557 237.227 194.557 235.909C194.557 234.576 194.269 233.439 193.693 232.5C193.133 231.545 192.322 230.818 191.261 230.318C190.216 229.803 188.951 229.545 187.466 229.545H183.011V266H170.375Z" fill="#013243"/>
</svg>
