<svg width="379" height="434" viewBox="0 0 379 434" fill="none" xmlns="http://www.w3.org/2000/svg">
<path d="M20 56.0499C20 43.8802 29.8802 34.0224 42.0499 34.05L230.365 34.477C236.797 34.4916 242.9 37.3202 247.069 42.2184L278.283 78.8953C279.752 80.6214 281.479 82.1101 283.403 83.3088L335.115 115.529C341.572 119.553 345.493 126.628 345.48 134.236L345.035 412.035C345.016 424.172 335.172 434 323.035 434H42C29.8497 434 20 424.15 20 412V56.0499Z" fill="#013243"/>
<path d="M232.996 146.949C223.054 146.949 214.996 138.89 214.996 128.949L214.996 52.5929C214.996 37.4662 232.522 29.0856 244.296 38.5824L284.424 70.9488L338.848 114.951C352.044 125.62 344.5 146.949 327.531 146.949L232.996 146.949Z" fill="#BEE5F3"/>
<rect y="229" width="251" height="104" rx="24" fill="#BEE5F3"/>
<path d="M88.0909 273C87.9697 271.485 87.4015 270.303 86.3864 269.455C85.3864 268.606 83.8636 268.182 81.8182 268.182C80.5152 268.182 79.447 268.341 78.6136 268.659C77.7955 268.962 77.1894 269.379 76.7955 269.909C76.4015 270.439 76.197 271.045 76.1818 271.727C76.1515 272.288 76.25 272.795 76.4773 273.25C76.7197 273.689 77.0985 274.091 77.6136 274.455C78.1288 274.803 78.7879 275.121 79.5909 275.409C80.3939 275.697 81.3485 275.955 82.4545 276.182L86.2727 277C88.8485 277.545 91.053 278.265 92.8864 279.159C94.7197 280.053 96.2197 281.106 97.3864 282.318C98.553 283.515 99.4091 284.864 99.9545 286.364C100.515 287.864 100.803 289.5 100.818 291.273C100.803 294.333 100.038 296.924 98.5227 299.045C97.0076 301.167 94.8409 302.78 92.0227 303.886C89.2197 304.992 85.8485 305.545 81.9091 305.545C77.8636 305.545 74.3333 304.947 71.3182 303.75C68.3182 302.553 65.9848 300.712 64.3182 298.227C62.6667 295.727 61.8333 292.53 61.8182 288.636H73.8182C73.8939 290.061 74.25 291.258 74.8864 292.227C75.5227 293.197 76.4167 293.932 77.5682 294.432C78.7348 294.932 80.1212 295.182 81.7273 295.182C83.0758 295.182 84.2045 295.015 85.1136 294.682C86.0227 294.348 86.7121 293.886 87.1818 293.295C87.6515 292.705 87.8939 292.03 87.9091 291.273C87.8939 290.561 87.6591 289.939 87.2045 289.409C86.7652 288.864 86.0379 288.379 85.0227 287.955C84.0076 287.515 82.6364 287.106 80.9091 286.727L76.2727 285.727C72.1515 284.833 68.9015 283.341 66.5227 281.25C64.1591 279.144 62.9848 276.273 63 272.636C62.9848 269.682 63.7727 267.098 65.3636 264.886C66.9697 262.659 69.1894 260.924 72.0227 259.682C74.8712 258.439 78.1364 257.818 81.8182 257.818C85.5758 257.818 88.8258 258.447 91.5682 259.705C94.3106 260.962 96.4242 262.735 97.9091 265.023C99.4091 267.295 100.167 269.955 100.182 273H88.0909ZM104.352 268.636V258.455H144.807V268.636H130.807V305H118.352V268.636H104.352ZM149.562 305V258.455H162.199V294.818H181.017V305H149.562Z" fill="#013243"/>
</svg>
