DBRep_DrawableShape

CASCADE Topology V3, (c) Open Cascade
Locations 0
Curve2ds 24
1 -1 -1 1 0 
8 0 2
1 1 1 -0 -1 
1 1 -1 0 1 
8 0 2
1 1 1 -0 -1 
1 1 1 -1 0 
8 0 2
1 1 1 -0 -1 
1 -1 1 0 -1 
8 0 2
1 1 1 -0 -1 
1 -1 -1 1 0 
8 0 2
1 -1 1 1 -0 
1 1 1 -1 0 
8 0 2
1 1 -1 -1 -0 
1 1 -1 0 1 
8 0 2
1 -1 -1 -0 1 
1 -1 -1 1 0 
8 0 2
1 -1 -1 -0 1 
1 1 1 -1 0 
8 0 2
1 -1 -1 -0 1 
1 -1 1 0 -1 
8 0 2
1 -1 -1 -0 1 
1 -1 -1 1 0 
8 0 2
1 -1 1 1 -0 
1 1 1 -1 0 
8 0 2
1 1 -1 -1 -0 
Curves 12
1 1 -1 -1 0 1 0 
1 1 1 -1 0 0 1 
1 1 1 1 0 -1 0 
1 1 -1 1 -0 0 -1 
1 -1 1 1 1 0 0 
1 1 1 -1 -1 0 -0 
1 -1 1 1 0 0 -1 
1 -1 -1 1 0 1 0 
1 -1 1 -1 0 -1 -0 
1 -1 -1 -1 0 0 1 
1 -1 -1 -1 1 0 0 
1 1 -1 1 -1 0 0 
Polygon3D 0
PolygonOnTriangulations 0
Surfaces 6
1 1 0 0 1 0 0 -0 1 0 0 -0 1 
1 -0 -0 -1 -0 -0 -1 1 0 0 0 -1 0 
1 0 1 0 0 1 0 1 0 0 0 0 -1 
1 0 0 1 0 0 1 1 0 -0 -0 1 0 
1 -0 -1 -0 -0 -1 -0 1 -0 0 -0 0 1 
1 -1 -0 -0 -1 -0 -0 0 1 0 0 0 -1 
Triangulations 0

TShapes 34
Ve
1e-07
1 -1 -1
0 0

0101101
*
Ve
1e-07
1 1 -1
0 0

0101101
*
Ed
 1e-07 1 1 0
1  1 0 0 2
2  1 1 0 0 2
2  2 2 0 0 2
4 C0 1 0 2 0
0

0101000
+34 0 -33 0 *
Ve
1e-07
1 1 1
0 0

0101101
*
Ed
 1e-07 1 1 0
1  2 0 0 2
2  3 1 0 0 2
2  4 3 0 0 2
4 C0 1 0 3 0
0

0101000
+33 0 -31 0 *
Ve
1e-07
1 -1 1
0 0

0101101
*
Ed
 1e-07 1 1 0
1  3 0 0 2
2  5 1 0 0 2
2  6 4 0 0 2
4 C0 1 0 4 0
0

0101000
+31 0 -29 0 *
Ed
 1e-07 1 1 0
1  4 0 0 2
2  7 1 0 0 2
2  8 5 0 0 2
4 C0 1 0 5 0
0

0101000
+29 0 -34 0 *
Wi

0101100
+32 0 +30 0 +28 0 +27 0 *
Fa
0  1e-07 1 0

0101000
+26 0 *
Ve
1e-07
-1 1 1
0 0

0101101
*
Ed
 1e-07 1 1 0
1  5 0 0 2
2  9 3 0 0 2
2  10 4 0 0 2
4 C0 3 0 4 0
0

0101000
+24 0 -31 0 *
Ve
1e-07
-1 1 -1
0 0

0101101
*
Ed
 1e-07 1 1 0
1  6 0 0 2
2  11 3 0 0 2
2  12 2 0 0 2
4 C0 3 0 2 0
0

0101000
+33 0 -22 0 *
Ed
 1e-07 1 1 0
1  7 0 0 2
2  13 6 0 0 2
2  14 3 0 0 2
4 C0 3 0 6 0
0

0101000
+24 0 -22 0 *
Wi

0101100
+23 0 -30 0 +21 0 -20 0 *
Fa
0  1e-07 3 0

0101000
+19 0 *
Ve
1e-07
-1 -1 1
0 0

0101101
*
Ed
 1e-07 1 1 0
1  8 0 0 2
2  15 6 0 0 2
2  16 4 0 0 2
4 C0 6 0 4 0
0

0101000
+17 0 -24 0 *
Ve
1e-07
-1 -1 -1
0 0

0101101
*
Ed
 1e-07 1 1 0
1  9 0 0 2
2  17 6 0 0 2
2  18 2 0 0 2
4 C0 6 0 2 0
0

0101000
+22 0 -15 0 *
Ed
 1e-07 1 1 0
1  10 0 0 2
2  19 6 0 0 2
2  20 5 0 0 2
4 C0 6 0 5 0
0

0101000
+15 0 -17 0 *
Wi

0101100
+16 0 +20 0 +14 0 +13 0 *
Fa
0  1e-07 6 0

0101000
+12 0 *
Ed
 1e-07 1 1 0
1  11 0 0 2
2  21 5 0 0 2
2  22 2 0 0 2
4 C0 5 0 2 0
0

0101000
+15 0 -34 0 *
Ed
 1e-07 1 1 0
1  12 0 0 2
2  23 5 0 0 2
2  24 4 0 0 2
4 C0 5 0 4 0
0

0101000
+29 0 -17 0 *
Wi

0101100
+10 0 -27 0 +9 0 -13 0 *
Fa
0  1e-07 5 0

0101000
+8 0 *
Wi

0101100
-9 0 -28 0 -23 0 -16 0 *
Fa
0  1e-07 4 0

0101000
+6 0 *
Wi

0101100
-21 0 -32 0 -10 0 -14 0 *
Fa
0  1e-07 2 0

0101000
+4 0 *
Sh

0101100
+25 0 +18 0 +11 0 +7 0 +5 0 +3 0 *
So

1100000
+2 0 *

+1 0 